<?xml version="1.0" encoding="UTF-8"?><svg xmlns="http://www.w3.org/2000/svg" xmlns:xlink="http://www.w3.org/1999/xlink" fill-opacity="1" color-rendering="auto" color-interpolation="auto" text-rendering="auto" stroke="black" stroke-linecap="square" width="1348" stroke-miterlimit="10" shape-rendering="auto" stroke-opacity="1" fill="black" stroke-dasharray="none" font-weight="normal" stroke-width="1" height="338" font-family="'Dialog'" font-style="normal" stroke-linejoin="miter" font-size="12px" stroke-dashoffset="0" image-rendering="auto">
  <!--Generated by ySVG 2.5-->
  <defs id="genericDefs"/>
  <g>
    <g fill="white" text-rendering="geometricPrecision" shape-rendering="geometricPrecision" transform="translate(86,-219)" stroke="white">
      <rect x="-86" width="1348" height="338" y="219" clip-path="url(#clipPath2)" stroke="none"/>
    </g>
    <g fill="url(#linearGradient1)" text-rendering="geometricPrecision" shape-rendering="geometricPrecision" transform="matrix(1,0,0,1,86,-219)" stroke="url(#linearGradient1)">
      <circle r="20" clip-path="url(#clipPath2)" cx="-30.3682" cy="430" stroke="none"/>
    </g>
    <g text-rendering="geometricPrecision" stroke-miterlimit="1.45" shape-rendering="geometricPrecision" transform="matrix(1,0,0,1,86,-219)" stroke-linecap="butt">
      <circle fill="none" r="20" clip-path="url(#clipPath2)" cx="-30.3682" cy="430"/>
    </g>
    <g fill="url(#linearGradient2)" text-rendering="geometricPrecision" shape-rendering="geometricPrecision" transform="matrix(1,0,0,1,86,-219)" stroke="url(#linearGradient2)">
      <path d="M71.3333 410 L151.3333 410 L151.3333 450 L71.3333 450 Z" stroke="none" clip-path="url(#clipPath2)"/>
    </g>
    <g text-rendering="geometricPrecision" stroke-miterlimit="1.45" shape-rendering="geometricPrecision" transform="matrix(1,0,0,1,86,-219)" stroke-linecap="butt">
      <path fill="none" d="M71.3333 410 L151.3333 410 L151.3333 450 L71.3333 450 Z" clip-path="url(#clipPath2)"/>
      <text x="94.8099" xml:space="preserve" y="427.1699" clip-path="url(#clipPath2)" font-family="sans-serif" stroke="none">login </text>
      <text x="88.3939" xml:space="preserve" y="441.1387" clip-path="url(#clipPath2)" font-family="sans-serif" stroke="none">request</text>
    </g>
    <g fill="url(#linearGradient3)" text-rendering="geometricPrecision" shape-rendering="geometricPrecision" transform="matrix(1,0,0,1,86,-219)" stroke="url(#linearGradient3)">
      <path d="M382.7015 410 L462.7015 410 L462.7015 450 L382.7015 450 Z" stroke="none" clip-path="url(#clipPath2)"/>
    </g>
    <g text-rendering="geometricPrecision" stroke-miterlimit="1.45" shape-rendering="geometricPrecision" transform="matrix(1,0,0,1,86,-219)" stroke-linecap="butt">
      <path fill="none" d="M382.7015 410 L462.7015 410 L462.7015 450 L382.7015 450 Z" clip-path="url(#clipPath2)"/>
      <text x="388.0697" xml:space="preserve" y="427.1699" clip-path="url(#clipPath2)" font-family="sans-serif" stroke="none">send magic</text>
      <text x="410.183" xml:space="preserve" y="441.1387" clip-path="url(#clipPath2)" font-family="sans-serif" stroke="none"> link</text>
    </g>
    <g fill="url(#linearGradient4)" text-rendering="geometricPrecision" shape-rendering="geometricPrecision" transform="matrix(1,0,0,1,86,-219)" stroke="url(#linearGradient4)">
      <path d="M81.5333 298.3375 L151.3333 298.3375 L141.1333 338.3375 L71.3333 338.3375 Z" stroke="none" clip-path="url(#clipPath2)"/>
    </g>
    <g text-rendering="geometricPrecision" stroke-miterlimit="1.45" shape-rendering="geometricPrecision" transform="matrix(1,0,0,1,86,-219)" stroke-linecap="butt">
      <path fill="none" d="M81.5333 298.3375 L151.3333 298.3375 L141.1333 338.3375 L71.3333 338.3375 Z" clip-path="url(#clipPath2)"/>
      <text x="94.7865" xml:space="preserve" y="322.4918" clip-path="url(#clipPath2)" font-family="sans-serif" stroke="none">email</text>
    </g>
    <g fill="url(#linearGradient5)" text-rendering="geometricPrecision" shape-rendering="geometricPrecision" transform="matrix(1,0,0,1,86,-219)" stroke="url(#linearGradient5)">
      <path d="M524.403 410 L604.403 410 L594.403 450 L534.403 450 Z" stroke="none" clip-path="url(#clipPath2)"/>
    </g>
    <g text-rendering="geometricPrecision" stroke-miterlimit="1.45" shape-rendering="geometricPrecision" transform="matrix(1,0,0,1,86,-219)" stroke-linecap="butt">
      <path fill="none" d="M524.403 410 L604.403 410 L594.403 450 L534.403 450 Z" clip-path="url(#clipPath2)"/>
      <text x="536.9108" xml:space="preserve" y="434.1543" clip-path="url(#clipPath2)" font-family="sans-serif" stroke="none">open link</text>
    </g>
    <g text-rendering="geometricPrecision" shape-rendering="geometricPrecision" transform="matrix(1.4743,0,0,1.4423,620.1798,50.0299)">
      <g clip-path="url(#clipPath3)">
        <svg xmlns:svg="http://www.w3.org/2000/svg" xmlns:sodipodi="http://sodipodi.sourceforge.net/DTD/sodipodi-0.dtd" xmlns:inkscape="http://www.inkscape.org/namespaces/inkscape" xmlns:dc="http://purl.org/dc/elements/1.1/" xmlns:cc="http://web.resource.org/cc/" xmlns:rdf="http://www.w3.org/1999/02/22-rdf-syntax-ns#" opacity="1" writing-mode="lr-tb" stop-color="rgb(0, 0, 0)" shape-rendering="auto" glyph-orientation-horizontal="0deg" color-profile="auto" lighting-color="rgb(255, 255, 255)" color="rgb(0, 0, 0)" font-weight="400" alignment-baseline="auto" font-style="normal" version="1.0" color-interpolation-filters="linearrgb" text-anchor="start" stroke-linecap="butt" color-interpolation="srgb" font-variant="normal" word-spacing="normal" fill-opacity="1" text-rendering="auto" clip-path="none" text-decoration="none" letter-spacing="normal" glyph-orientation-vertical="auto" display="inline" font-size-adjust="none" overflow="visible" fill="rgb(0, 0, 0)" font-stretch="normal" stroke-dasharray="none" inkscape:version="0.45.1" id="svg1.svg2" stroke-miterlimit="4" stop-opacity="1" color-rendering="auto" font-size="12" sodipodi:docbase="C:\Daten\alberts\projects\yfx" pointer-events="visiblepainted" mask="none" direction="ltr" baseline-shift="baseline" sodipodi:docname="uml_actor.svg" enable-background="accumulate" fill-rule="nonzero" image-rendering="auto" stroke-dashoffset="0" inkscape:output_extension="org.inkscape.output.svg.inkscape" marker-end="none" width="41" clip="auto" cursor="auto" stroke="none" filter="none" visibility="visible" kerning="auto" stroke-width="1" font-family="&quot;Arial&quot;,&quot;Helvetica&quot;,sans-serif" flood-opacity="1" clip-rule="nonzero" src="none" height="68.997391" unicode-bidi="normal" sodipodi:version="0.32" stroke-linejoin="miter" stroke-opacity="1" flood-color="rgb(0, 0, 0)" dominant-baseline="auto" marker-start="none" marker-mid="none">
  <defs id="svg1.defs4">
            <linearGradient x1="-70.3682" gradientUnits="userSpaceOnUse" x2="9.6318" y1="410" y2="450" id="linearGradient1" spreadMethod="reflect">
              <stop stop-opacity="1" stop-color="rgb(232,238,247)" offset="0%"/>
              <stop stop-opacity="1" stop-color="rgb(183,201,227)" offset="100%"/>
            </linearGradient>
            <linearGradient x1="71.3333" gradientUnits="userSpaceOnUse" x2="151.3333" y1="410" y2="450" id="linearGradient2" spreadMethod="reflect">
              <stop stop-opacity="1" stop-color="rgb(232,238,247)" offset="0%"/>
              <stop stop-opacity="1" stop-color="rgb(183,201,227)" offset="100%"/>
            </linearGradient>
            <linearGradient x1="382.7015" gradientUnits="userSpaceOnUse" x2="462.7015" y1="410" y2="450" id="linearGradient3" spreadMethod="reflect">
              <stop stop-opacity="1" stop-color="rgb(232,238,247)" offset="0%"/>
              <stop stop-opacity="1" stop-color="rgb(183,201,227)" offset="100%"/>
            </linearGradient>
            <linearGradient x1="71.3333" gradientUnits="userSpaceOnUse" x2="151.3333" y1="298.3375" y2="338.3375" id="linearGradient4" spreadMethod="reflect">
              <stop stop-opacity="1" stop-color="rgb(232,238,247)" offset="0%"/>
              <stop stop-opacity="1" stop-color="rgb(183,201,227)" offset="100%"/>
            </linearGradient>
            <linearGradient x1="524.403" gradientUnits="userSpaceOnUse" x2="604.403" y1="410" y2="450" id="linearGradient5" spreadMethod="reflect">
              <stop stop-opacity="1" stop-color="rgb(232,238,247)" offset="0%"/>
              <stop stop-opacity="1" stop-color="rgb(183,201,227)" offset="100%"/>
            </linearGradient>
            <linearGradient x1="845.449" gradientUnits="userSpaceOnUse" x2="925.449" y1="410" y2="450" id="linearGradient6" spreadMethod="reflect">
              <stop stop-opacity="1" stop-color="rgb(232,238,247)" offset="0%"/>
              <stop stop-opacity="1" stop-color="rgb(183,201,227)" offset="100%"/>
            </linearGradient>
            <linearGradient x1="227.0174" gradientUnits="userSpaceOnUse" x2="307.0174" y1="410" y2="450" id="linearGradient7" spreadMethod="reflect">
              <stop stop-opacity="1" stop-color="rgb(232,238,247)" offset="0%"/>
              <stop stop-opacity="1" stop-color="rgb(183,201,227)" offset="100%"/>
            </linearGradient>
            <linearGradient x1="845.449" gradientUnits="userSpaceOnUse" x2="925.449" y1="298.3375" y2="338.3375" id="linearGradient8" spreadMethod="reflect">
              <stop stop-opacity="1" stop-color="rgb(232,238,247)" offset="0%"/>
              <stop stop-opacity="1" stop-color="rgb(183,201,227)" offset="100%"/>
            </linearGradient>
            <linearGradient x1="684.926" gradientUnits="userSpaceOnUse" x2="764.926" y1="410" y2="450" id="linearGradient9" spreadMethod="reflect">
              <stop stop-opacity="1" stop-color="rgb(232,238,247)" offset="0%"/>
              <stop stop-opacity="1" stop-color="rgb(183,201,227)" offset="100%"/>
            </linearGradient>
            <linearGradient x1="1005.972" gradientUnits="userSpaceOnUse" x2="1085.972" y1="410" y2="450" id="linearGradient10" spreadMethod="reflect">
              <stop stop-opacity="1" stop-color="rgb(232,238,247)" offset="0%"/>
              <stop stop-opacity="1" stop-color="rgb(183,201,227)" offset="100%"/>
            </linearGradient>
            <linearGradient x1="1166.495" gradientUnits="userSpaceOnUse" x2="1246.495" y1="410" y2="450" id="linearGradient11" spreadMethod="reflect">
              <stop stop-opacity="1" stop-color="rgb(232,238,247)" offset="0%"/>
              <stop stop-opacity="1" stop-color="rgb(183,201,227)" offset="100%"/>
            </linearGradient>
            <clipPath clipPathUnits="userSpaceOnUse" id="clipPath1">
              <path d="M0 0 L1348 0 L1348 338 L0 338 L0 0 Z"/>
            </clipPath>
            <clipPath clipPathUnits="userSpaceOnUse" id="clipPath2">
              <path d="M-86 219 L1262 219 L1262 557 L-86 557 L-86 219 Z"/>
            </clipPath>
            <clipPath clipPathUnits="userSpaceOnUse" id="clipPath3">
              <path d="M-420.6606 -34.6886 L493.6717 -34.6886 L493.6717 199.6666 L-420.6606 199.6666 L-420.6606 -34.6886 Z"/>
            </clipPath>
          </defs>
  
  <metadata id="svg1.metadata7">
    
  </metadata>
  <g inkscape:groupmode="layer" id="svg1.layer1" transform="translate(-29.5,-42.959476)" inkscape:label="Ebene 1">
    <a id="svg1.a3142" transform="matrix(1.0873906,0,0,1,-4.4741999,0)">
      <path transform="translate(11.586889,5.2908993)" style="fill:none;fill-rule:evenodd;stroke:#000000;stroke-width:1px;stroke-linecap:butt;stroke-linejoin:miter;stroke-opacity:1" sodipodi:cx="38.509369" sodipodi:cy="47.36993" sodipodi:rx="8.5197716" id="svg1.path2160" d="M 47.02914 47.36993 A 8.5197716 9.2013531 0 1 1  29.989597,47.36993 A 8.5197716 9.2013531 0 1 1  47.02914 47.36993 z" sodipodi:ry="9.2013531" sodipodi:type="arc"/>
    </a>
    <path style="fill:none" sodipodi:cx="43.962021" sodipodi:cy="48.392303" d="M 47.71072 48.392303 A 3.7486994 0 0 1 1  40.213321,48.392303 A 3.7486994 0 0 1 1  47.71072 48.392303 z" id="svg1.path3134" sodipodi:rx="3.7486994" sodipodi:ry="0" sodipodi:type="arc"/>
    <path style="fill:none;fill-rule:evenodd;stroke:#000000;stroke-width:1.24319649px;stroke-linecap:butt;stroke-linejoin:miter;stroke-opacity:1" d="M 50,61.33709 C 50,91.363211 50,92.247838 50,92.247838" id="svg1.path3136"/>
    <path style="fill:none;fill-rule:evenodd;stroke:#000000;stroke-width:1px;stroke-linecap:butt;stroke-linejoin:miter;stroke-opacity:1" d="M 69.760668,72.362183 C 69.760668,72.362183 69.760668,72.362183 50.239332,72.362183 C 30.239332,72.362183 30.239332,72.362183 30.239332,72.362183 L 30.239332,72.362183" id="svg1.path3138"/>
    <path style="fill:none;fill-rule:evenodd;stroke:#000000;stroke-width:1px;stroke-linecap:butt;stroke-linejoin:miter;stroke-opacity:1" d="M 30,111.45687 C 30,111.45687 30,111.45687 50,92.013532 C 70,111.45687 70,111.45687 70,111.45687" id="svg1.path3140"/>
  </g>
</svg>
      </g>
    </g>
    <g font-size="13px" stroke-linecap="butt" transform="matrix(1,0,0,1,86,-219)" text-rendering="geometricPrecision" font-family="sans-serif" shape-rendering="geometricPrecision" stroke-miterlimit="1.45">
      <text x="547.185" xml:space="preserve" y="248.438" clip-path="url(#clipPath2)" stroke="none">Actor</text>
    </g>
    <g fill="url(#linearGradient6)" text-rendering="geometricPrecision" shape-rendering="geometricPrecision" transform="matrix(1,0,0,1,86,-219)" stroke="url(#linearGradient6)">
      <path d="M885.449 410 L925.449 430 L885.449 450 L845.449 430 Z" stroke="none" clip-path="url(#clipPath2)"/>
    </g>
    <g text-rendering="geometricPrecision" stroke-miterlimit="1.45" shape-rendering="geometricPrecision" transform="matrix(1,0,0,1,86,-219)" stroke-linecap="butt">
      <path fill="none" d="M885.449 410 L925.449 430 L885.449 450 L845.449 430 Z" clip-path="url(#clipPath2)"/>
      <text x="841.7322" xml:space="preserve" y="473.7677" clip-path="url(#clipPath2)" font-family="sans-serif" stroke="none">check persona</text>
    </g>
    <g fill="url(#linearGradient7)" text-rendering="geometricPrecision" shape-rendering="geometricPrecision" transform="matrix(1,0,0,1,86,-219)" stroke="url(#linearGradient7)">
      <path d="M227.0174 410 L307.0174 410 L307.0174 450 L227.0174 450 Z" stroke="none" clip-path="url(#clipPath2)"/>
    </g>
    <g text-rendering="geometricPrecision" stroke-miterlimit="1.45" shape-rendering="geometricPrecision" transform="matrix(1,0,0,1,86,-219)" stroke-linecap="butt">
      <path fill="none" d="M227.0174 410 L307.0174 410 L307.0174 450 L227.0174 450 Z" clip-path="url(#clipPath2)"/>
      <text x="242.9266" xml:space="preserve" y="427.1699" clip-path="url(#clipPath2)" font-family="sans-serif" stroke="none">validate</text>
      <text x="248.0828" xml:space="preserve" y="441.1387" clip-path="url(#clipPath2)" font-family="sans-serif" stroke="none">app-id</text>
    </g>
    <g fill="rgb(232,238,247)" text-rendering="geometricPrecision" shape-rendering="geometricPrecision" transform="matrix(1,0,0,1,86,-219)" stroke="rgb(232,238,247)">
      <rect x="227.0174" width="194" height="65" y="285.8375" clip-path="url(#clipPath2)" stroke="none"/>
    </g>
    <g text-rendering="geometricPrecision" stroke-miterlimit="1.45" shape-rendering="geometricPrecision" transform="matrix(1,0,0,1,86,-219)" stroke-linecap="butt">
      <path fill="none" d="M227.0174 342.7125 L227.0174 350.8375 L421.0174 350.8375 L421.0174 342.7125" clip-path="url(#clipPath2)"/>
      <text x="239.8973" xml:space="preserve" y="315.5074" clip-path="url(#clipPath2)" font-family="sans-serif" stroke="none">Calls are 99% from external</text>
      <text x="240.076" xml:space="preserve" y="329.4762" clip-path="url(#clipPath2)" font-family="sans-serif" stroke="none">apps to the accounts server</text>
    </g>
    <g fill="url(#linearGradient8)" text-rendering="geometricPrecision" shape-rendering="geometricPrecision" transform="matrix(1,0,0,1,86,-219)" stroke="url(#linearGradient8)">
      <path d="M845.449 298.3375 L925.449 298.3375 L915.449 338.3375 L855.449 338.3375 Z" stroke="none" clip-path="url(#clipPath2)"/>
    </g>
    <g text-rendering="geometricPrecision" stroke-miterlimit="1.45" shape-rendering="geometricPrecision" transform="matrix(1,0,0,1,86,-219)" stroke-linecap="butt">
      <path fill="none" d="M845.449 298.3375 L925.449 298.3375 L915.449 338.3375 L855.449 338.3375 Z" clip-path="url(#clipPath2)"/>
      <text x="869.4441" xml:space="preserve" y="315.5074" clip-path="url(#clipPath2)" font-family="sans-serif" stroke="none">enter</text>
      <text x="856.8582" xml:space="preserve" y="329.4762" clip-path="url(#clipPath2)" font-family="sans-serif" stroke="none">password</text>
    </g>
    <g fill="url(#linearGradient9)" text-rendering="geometricPrecision" shape-rendering="geometricPrecision" transform="matrix(1,0,0,1,86,-219)" stroke="url(#linearGradient9)">
      <path d="M684.926 410 L764.926 410 L764.926 450 L684.926 450 Z" stroke="none" clip-path="url(#clipPath2)"/>
    </g>
    <g text-rendering="geometricPrecision" stroke-miterlimit="1.45" shape-rendering="geometricPrecision" transform="matrix(1,0,0,1,86,-219)" stroke-linecap="butt">
      <path fill="none" d="M684.926 410 L764.926 410 L764.926 450 L684.926 450 Z" clip-path="url(#clipPath2)"/>
      <text x="684.8508" xml:space="preserve" y="427.1699" clip-path="url(#clipPath2)" font-family="sans-serif" stroke="none">authenticate </text>
      <text x="701.9866" xml:space="preserve" y="441.1387" clip-path="url(#clipPath2)" font-family="sans-serif" stroke="none">request</text>
    </g>
    <g fill="url(#linearGradient10)" text-rendering="geometricPrecision" shape-rendering="geometricPrecision" transform="matrix(1,0,0,1,86,-219)" stroke="url(#linearGradient10)">
      <path d="M1005.972 410 L1085.972 410 L1085.972 450 L1005.972 450 Z" stroke="none" clip-path="url(#clipPath2)"/>
    </g>
    <g text-rendering="geometricPrecision" stroke-miterlimit="1.45" shape-rendering="geometricPrecision" transform="matrix(1,0,0,1,86,-219)" stroke-linecap="butt">
      <path fill="none" d="M1005.972 410 L1085.972 410 L1085.972 450 L1005.972 450 Z" clip-path="url(#clipPath2)"/>
      <text x="1013.013" xml:space="preserve" y="427.1699" clip-path="url(#clipPath2)" font-family="sans-serif" stroke="none">set current</text>
      <text x="1032.8851" xml:space="preserve" y="441.1387" clip-path="url(#clipPath2)" font-family="sans-serif" stroke="none">user</text>
    </g>
    <g fill="url(#linearGradient11)" text-rendering="geometricPrecision" shape-rendering="geometricPrecision" transform="matrix(1,0,0,1,86,-219)" stroke="url(#linearGradient11)">
      <rect x="1166.495" y="410" clip-path="url(#clipPath2)" width="80" rx="20" ry="20" height="40" stroke="none"/>
    </g>
    <g text-rendering="geometricPrecision" stroke-miterlimit="1.45" shape-rendering="geometricPrecision" transform="matrix(1,0,0,1,86,-219)" stroke-linecap="butt">
      <rect x="1166.495" y="410" clip-path="url(#clipPath2)" fill="none" width="80" rx="20" ry="20" height="40"/>
      <text x="1183.0253" xml:space="preserve" y="434.1543" clip-path="url(#clipPath2)" font-family="sans-serif" stroke="none">success</text>
    </g>
    <g fill="rgb(232,238,247)" text-rendering="geometricPrecision" shape-rendering="geometricPrecision" transform="matrix(1,0,0,1,86,-219)" stroke="rgb(232,238,247)">
      <rect x="9.403" width="1110" height="32.5" y="509.1625" clip-path="url(#clipPath2)" stroke="none"/>
    </g>
    <g text-rendering="geometricPrecision" stroke-miterlimit="1.45" shape-rendering="geometricPrecision" transform="matrix(1,0,0,1,86,-219)" stroke-linecap="butt">
      <path fill="none" d="M9.403 513.225 L9.403 509.1625 L1119.403 509.1625 L1119.403 513.225" clip-path="url(#clipPath2)"/>
      <text x="30.7428" xml:space="preserve" y="529.5668" clip-path="url(#clipPath2)" font-family="sans-serif" stroke="none">localhost:9090/oauth/authenticate?client_id=teacher-application-id&amp;code=12345&amp;display=popup&amp;redirect_uri=http%3A%2F%2Flocalhost%3A5555%2F_oauth%2Flea&amp;state=...</text>
    </g>
    <g text-rendering="geometricPrecision" stroke-miterlimit="1.45" shape-rendering="geometricPrecision" transform="matrix(1,0,0,1,86,-219)" stroke-linecap="butt">
      <path fill="none" d="M-10.3376 430 L63.3209 430" clip-path="url(#clipPath2)"/>
    </g>
    <g text-rendering="geometricPrecision" stroke-miterlimit="1.45" shape-rendering="geometricPrecision" transform="matrix(1,0,0,1,86,-219)" stroke-linecap="butt">
      <path d="M71.3209 430 L59.3209 425 L62.3209 430 L59.3209 435 Z" stroke="none" clip-path="url(#clipPath2)"/>
      <path fill="none" d="M111.3333 338.3201 L111.3333 401.9898" clip-path="url(#clipPath2)"/>
      <path d="M111.3333 409.9898 L116.3333 397.9898 L111.3333 400.9898 L106.3333 397.9898 Z" clip-path="url(#clipPath2)" stroke="none"/>
      <path fill="none" d="M462.728 430 L521.4026 430" clip-path="url(#clipPath2)"/>
      <path d="M529.4026 430 L517.4026 425 L520.4026 430 L517.4026 435 Z" clip-path="url(#clipPath2)" stroke="none"/>
      <path fill="none" stroke-dasharray="6,2" d="M564.403 368.3621 L564.403 401.9857" clip-path="url(#clipPath2)"/>
      <path stroke-dasharray="6,2" d="M564.403 409.9857 L569.403 397.9857 L564.403 400.9857 L559.403 397.9857 Z" clip-path="url(#clipPath2)" stroke="none"/>
      <path fill="none" d="M151.3566 430 L219.0049 430" clip-path="url(#clipPath2)"/>
      <path d="M227.0049 430 L215.0049 425 L218.0049 430 L215.0049 435 Z" clip-path="url(#clipPath2)" stroke="none"/>
      <path fill="none" d="M307.0407 430 L374.689 430" clip-path="url(#clipPath2)"/>
      <path d="M382.689 430 L370.689 425 L373.689 430 L370.689 435 Z" clip-path="url(#clipPath2)" stroke="none"/>
      <path fill="none" stroke-dasharray="6,2" d="M307.4156 350.8603 L277.2156 410.0219" clip-path="url(#clipPath2)"/>
      <path fill="none" stroke-dasharray="6,2" d="M594.3835 318.3375 L842.4515 318.3375" clip-path="url(#clipPath2)"/>
      <path stroke-dasharray="6,2" d="M850.4515 318.3375 L838.4515 313.3375 L841.4515 318.3375 L838.4515 323.3375 Z" clip-path="url(#clipPath2)" stroke="none"/>
      <path fill="none" d="M885.449 410.0174 L885.449 346.3477" clip-path="url(#clipPath2)"/>
      <path d="M885.449 338.3477 L880.449 350.3477 L885.449 347.3477 L890.449 350.3477 Z" clip-path="url(#clipPath2)" stroke="none"/>
      <text x="836.6492" xml:space="preserve" y="371.3387" clip-path="url(#clipPath2)" font-family="sans-serif" stroke="none">admin</text>
      <text x="839.8835" xml:space="preserve" y="385.3074" clip-path="url(#clipPath2)" font-family="sans-serif" stroke="none">team</text>
      <path fill="none" d="M599.3998 430 L676.9329 430" clip-path="url(#clipPath2)"/>
      <path d="M684.9329 430 L672.9329 425 L675.9329 430 L672.9329 435 Z" clip-path="url(#clipPath2)" stroke="none"/>
      <path fill="none" d="M764.9392 430 L837.4654 430" clip-path="url(#clipPath2)"/>
      <path d="M845.4654 430 L833.4654 425 L836.4654 430 L833.4654 435 Z" clip-path="url(#clipPath2)" stroke="none"/>
      <path fill="none" d="M925.4622 430 L997.9884 430" clip-path="url(#clipPath2)"/>
      <path d="M1005.9884 430 L993.9884 425 L996.9884 430 L993.9884 435 Z" clip-path="url(#clipPath2)" stroke="none"/>
      <text x="939.4532" xml:space="preserve" y="419.7191" clip-path="url(#clipPath2)" font-family="sans-serif" stroke="none">teacher</text>
      <path fill="none" d="M920.4459 318.3375 L1045.972 318.3375 L1045.972 402.0174" clip-path="url(#clipPath2)"/>
      <path d="M1045.972 410.0174 L1050.972 398.0174 L1045.972 401.0174 L1040.972 398.0174 Z" clip-path="url(#clipPath2)" stroke="none"/>
      <path fill="none" d="M1085.9852 430 L1158.5114 430" clip-path="url(#clipPath2)"/>
      <path d="M1166.5114 430 L1154.5114 425 L1157.5114 430 L1154.5114 435 Z" clip-path="url(#clipPath2)" stroke="none"/>
      <path fill="none" stroke-dasharray="6,2" d="M540.2902 509.1765 L452.4145 450.0068" clip-path="url(#clipPath2)"/>
    </g>
  </g>
</svg>
