<?xml version="1.0" encoding="UTF-8"?><svg xmlns="http://www.w3.org/2000/svg" xmlns:xlink="http://www.w3.org/1999/xlink" fill-opacity="1" color-rendering="auto" color-interpolation="auto" text-rendering="auto" stroke="black" stroke-linecap="square" width="994" stroke-miterlimit="10" shape-rendering="auto" stroke-opacity="1" fill="black" stroke-dasharray="none" font-weight="normal" stroke-width="1" height="348" font-family="'Dialog'" font-style="normal" stroke-linejoin="miter" font-size="12px" stroke-dashoffset="0" image-rendering="auto">
  <!--Generated by ySVG 2.5-->
  <defs id="genericDefs"/>
  <g>
    <g fill="white" text-rendering="geometricPrecision" shape-rendering="geometricPrecision" transform="translate(-115,-57)" stroke="white">
      <rect x="115" width="994" height="348" y="57" clip-path="url(#clipPath2)" stroke="none"/>
    </g>
    <g fill="url(#linearGradient1)" text-rendering="geometricPrecision" shape-rendering="geometricPrecision" transform="matrix(1,0,0,1,-115,-57)" stroke="url(#linearGradient1)">
      <circle r="20" clip-path="url(#clipPath2)" cx="170" cy="263" stroke="none"/>
    </g>
    <g text-rendering="geometricPrecision" stroke-miterlimit="1.45" shape-rendering="geometricPrecision" transform="matrix(1,0,0,1,-115,-57)" stroke-linecap="butt">
      <circle fill="none" r="20" clip-path="url(#clipPath2)" cx="170" cy="263"/>
    </g>
    <g fill="url(#linearGradient2)" text-rendering="geometricPrecision" shape-rendering="geometricPrecision" transform="matrix(1,0,0,1,-115,-57)" stroke="url(#linearGradient2)">
      <path d="M406 243 L486 243 L486 283 L406 283 Z" stroke="none" clip-path="url(#clipPath2)"/>
    </g>
    <g text-rendering="geometricPrecision" stroke-miterlimit="1.45" shape-rendering="geometricPrecision" transform="matrix(1,0,0,1,-115,-57)" stroke-linecap="butt">
      <path fill="none" d="M406 243 L486 243 L486 283 L406 283 Z" clip-path="url(#clipPath2)"/>
      <text x="414.2744" xml:space="preserve" y="267.1543" clip-path="url(#clipPath2)" font-family="sans-serif" stroke="none">invite user</text>
    </g>
    <g fill="url(#linearGradient3)" text-rendering="geometricPrecision" shape-rendering="geometricPrecision" transform="matrix(1,0,0,1,-115,-57)" stroke="url(#linearGradient3)">
      <path d="M294 243 L334 263 L294 283 L254 263 Z" stroke="none" clip-path="url(#clipPath2)"/>
    </g>
    <g text-rendering="geometricPrecision" stroke-miterlimit="1.45" shape-rendering="geometricPrecision" transform="matrix(1,0,0,1,-115,-57)" stroke-linecap="butt">
      <path fill="none" d="M294 243 L334 263 L294 283 L254 263 Z" clip-path="url(#clipPath2)"/>
      <text x="229.6689" xml:space="preserve" y="220.2012" clip-path="url(#clipPath2)" font-family="sans-serif" stroke="none">Account</text>
      <text x="233.3018" xml:space="preserve" y="234.1699" clip-path="url(#clipPath2)" font-family="sans-serif" stroke="none">exists?</text>
    </g>
    <g fill="url(#linearGradient4)" text-rendering="geometricPrecision" shape-rendering="geometricPrecision" transform="matrix(1,0,0,1,-115,-57)" stroke="url(#linearGradient4)">
      <path d="M408.85 106.75 L501 106.75 L483.15 176.75 L391 176.75 Z" stroke="none" clip-path="url(#clipPath2)"/>
    </g>
    <g text-rendering="geometricPrecision" stroke-miterlimit="1.45" shape-rendering="geometricPrecision" transform="matrix(1,0,0,1,-115,-57)" stroke-linecap="butt">
      <path fill="none" d="M408.85 106.75 L501 106.75 L483.15 176.75 L391 176.75 Z" clip-path="url(#clipPath2)"/>
      <text x="429.4531" xml:space="preserve" y="117.9668" clip-path="url(#clipPath2)" font-family="sans-serif" stroke="none">email</text>
      <text x="415.3525" xml:space="preserve" y="131.9355" clip-path="url(#clipPath2)" font-family="sans-serif" stroke="none">first name</text>
      <text x="416.2549" xml:space="preserve" y="145.9043" clip-path="url(#clipPath2)" font-family="sans-serif" stroke="none">last name</text>
      <text x="421.7568" xml:space="preserve" y="159.873" clip-path="url(#clipPath2)" font-family="sans-serif" stroke="none">persona</text>
      <text x="415.7363" xml:space="preserve" y="173.8418" clip-path="url(#clipPath2)" font-family="sans-serif" stroke="none">institution</text>
    </g>
    <g fill="url(#linearGradient5)" text-rendering="geometricPrecision" shape-rendering="geometricPrecision" transform="matrix(1,0,0,1,-115,-57)" stroke="url(#linearGradient5)">
      <path d="M558 243 L638 243 L638 283 L558 283 Z" stroke="none" clip-path="url(#clipPath2)"/>
    </g>
    <g text-rendering="geometricPrecision" stroke-miterlimit="1.45" shape-rendering="geometricPrecision" transform="matrix(1,0,0,1,-115,-57)" stroke-linecap="butt">
      <path fill="none" d="M558 243 L638 243 L638 283 L558 283 Z" clip-path="url(#clipPath2)"/>
      <text x="570.5078" xml:space="preserve" y="267.1543" clip-path="url(#clipPath2)" font-family="sans-serif" stroke="none">open link</text>
    </g>
    <g fill="url(#linearGradient6)" text-rendering="geometricPrecision" shape-rendering="geometricPrecision" transform="matrix(1,0,0,1,-115,-57)" stroke="url(#linearGradient6)">
      <path d="M710 243 L790 243 L790 283 L710 283 Z" stroke="none" clip-path="url(#clipPath2)"/>
    </g>
    <g text-rendering="geometricPrecision" stroke-miterlimit="1.45" shape-rendering="geometricPrecision" transform="matrix(1,0,0,1,-115,-57)" stroke-linecap="butt">
      <path fill="none" d="M710 243 L790 243 L790 283 L710 283 Z" clip-path="url(#clipPath2)"/>
      <text x="720.2783" xml:space="preserve" y="267.1543" clip-path="url(#clipPath2)" font-family="sans-serif" stroke="none">set passw</text>
    </g>
    <g fill="url(#linearGradient7)" text-rendering="geometricPrecision" shape-rendering="geometricPrecision" transform="matrix(1,0,0,1,-115,-57)" stroke="url(#linearGradient7)">
      <rect x="1014" y="243" clip-path="url(#clipPath2)" width="80" rx="20" ry="20" height="40" stroke="none"/>
    </g>
    <g text-rendering="geometricPrecision" stroke-miterlimit="1.45" shape-rendering="geometricPrecision" transform="matrix(1,0,0,1,-115,-57)" stroke-linecap="butt">
      <rect x="1014" y="243" clip-path="url(#clipPath2)" fill="none" width="80" rx="20" ry="20" height="40"/>
      <text x="1030.5303" xml:space="preserve" y="267.1543" clip-path="url(#clipPath2)" font-family="sans-serif" stroke="none">success</text>
    </g>
    <g fill="url(#linearGradient8)" text-rendering="geometricPrecision" shape-rendering="geometricPrecision" transform="matrix(1,0,0,1,-115,-57)" stroke="url(#linearGradient8)">
      <path d="M862 243 L942 243 L942 283 L862 283 Z" stroke="none" clip-path="url(#clipPath2)"/>
    </g>
    <g text-rendering="geometricPrecision" stroke-miterlimit="1.45" shape-rendering="geometricPrecision" transform="matrix(1,0,0,1,-115,-57)" stroke-linecap="butt">
      <path fill="none" d="M862 243 L942 243 L942 283 L862 283 Z" clip-path="url(#clipPath2)"/>
      <text x="874.1006" xml:space="preserve" y="267.1543" clip-path="url(#clipPath2)" font-family="sans-serif" stroke="none">validated</text>
    </g>
    <g text-rendering="geometricPrecision" shape-rendering="geometricPrecision" transform="matrix(1.4743,0,0,1.4423,604.7768,50.4424)">
      <g clip-path="url(#clipPath3)">
        <svg xmlns:svg="http://www.w3.org/2000/svg" xmlns:sodipodi="http://sodipodi.sourceforge.net/DTD/sodipodi-0.dtd" xmlns:inkscape="http://www.inkscape.org/namespaces/inkscape" xmlns:dc="http://purl.org/dc/elements/1.1/" xmlns:cc="http://web.resource.org/cc/" xmlns:rdf="http://www.w3.org/1999/02/22-rdf-syntax-ns#" opacity="1" writing-mode="lr-tb" stop-color="rgb(0, 0, 0)" shape-rendering="auto" glyph-orientation-horizontal="0deg" color-profile="auto" lighting-color="rgb(255, 255, 255)" color="rgb(0, 0, 0)" font-weight="400" alignment-baseline="auto" font-style="normal" version="1.0" color-interpolation-filters="linearrgb" text-anchor="start" stroke-linecap="butt" color-interpolation="srgb" font-variant="normal" word-spacing="normal" fill-opacity="1" text-rendering="auto" clip-path="none" text-decoration="none" letter-spacing="normal" glyph-orientation-vertical="auto" display="inline" font-size-adjust="none" overflow="visible" fill="rgb(0, 0, 0)" font-stretch="normal" stroke-dasharray="none" inkscape:version="0.45.1" id="svg1.svg2" stroke-miterlimit="4" stop-opacity="1" color-rendering="auto" font-size="12" sodipodi:docbase="C:\Daten\alberts\projects\yfx" pointer-events="visiblepainted" mask="none" direction="ltr" baseline-shift="baseline" sodipodi:docname="uml_actor.svg" enable-background="accumulate" fill-rule="nonzero" image-rendering="auto" stroke-dashoffset="0" inkscape:output_extension="org.inkscape.output.svg.inkscape" marker-end="none" width="41" clip="auto" cursor="auto" stroke="none" filter="none" visibility="visible" kerning="auto" stroke-width="1" font-family="&quot;Arial&quot;,&quot;Helvetica&quot;,sans-serif" flood-opacity="1" clip-rule="nonzero" src="none" height="68.997391" unicode-bidi="normal" sodipodi:version="0.32" stroke-linejoin="miter" stroke-opacity="1" flood-color="rgb(0, 0, 0)" dominant-baseline="auto" marker-start="none" marker-mid="none">
  <defs id="svg1.defs4">
            <linearGradient x1="130" gradientUnits="userSpaceOnUse" x2="210" y1="243" y2="283" id="linearGradient1" spreadMethod="reflect">
              <stop stop-opacity="1" stop-color="rgb(232,238,247)" offset="0%"/>
              <stop stop-opacity="1" stop-color="rgb(183,201,227)" offset="100%"/>
            </linearGradient>
            <linearGradient x1="406" gradientUnits="userSpaceOnUse" x2="486" y1="243" y2="283" id="linearGradient2" spreadMethod="reflect">
              <stop stop-opacity="1" stop-color="rgb(232,238,247)" offset="0%"/>
              <stop stop-opacity="1" stop-color="rgb(183,201,227)" offset="100%"/>
            </linearGradient>
            <linearGradient x1="254" gradientUnits="userSpaceOnUse" x2="334" y1="243" y2="283" id="linearGradient3" spreadMethod="reflect">
              <stop stop-opacity="1" stop-color="rgb(232,238,247)" offset="0%"/>
              <stop stop-opacity="1" stop-color="rgb(183,201,227)" offset="100%"/>
            </linearGradient>
            <linearGradient x1="391" gradientUnits="userSpaceOnUse" x2="501" y1="106.75" y2="176.75" id="linearGradient4" spreadMethod="reflect">
              <stop stop-opacity="1" stop-color="rgb(232,238,247)" offset="0%"/>
              <stop stop-opacity="1" stop-color="rgb(183,201,227)" offset="100%"/>
            </linearGradient>
            <linearGradient x1="558" gradientUnits="userSpaceOnUse" x2="638" y1="243" y2="283" id="linearGradient5" spreadMethod="reflect">
              <stop stop-opacity="1" stop-color="rgb(232,238,247)" offset="0%"/>
              <stop stop-opacity="1" stop-color="rgb(183,201,227)" offset="100%"/>
            </linearGradient>
            <linearGradient x1="710" gradientUnits="userSpaceOnUse" x2="790" y1="243" y2="283" id="linearGradient6" spreadMethod="reflect">
              <stop stop-opacity="1" stop-color="rgb(232,238,247)" offset="0%"/>
              <stop stop-opacity="1" stop-color="rgb(183,201,227)" offset="100%"/>
            </linearGradient>
            <linearGradient x1="1014" gradientUnits="userSpaceOnUse" x2="1094" y1="243" y2="283" id="linearGradient7" spreadMethod="reflect">
              <stop stop-opacity="1" stop-color="rgb(232,238,247)" offset="0%"/>
              <stop stop-opacity="1" stop-color="rgb(183,201,227)" offset="100%"/>
            </linearGradient>
            <linearGradient x1="862" gradientUnits="userSpaceOnUse" x2="942" y1="243" y2="283" id="linearGradient8" spreadMethod="reflect">
              <stop stop-opacity="1" stop-color="rgb(232,238,247)" offset="0%"/>
              <stop stop-opacity="1" stop-color="rgb(183,201,227)" offset="100%"/>
            </linearGradient>
            <linearGradient x1="364" gradientUnits="userSpaceOnUse" x2="444" y1="349.25" y2="389.25" id="linearGradient9" spreadMethod="reflect">
              <stop stop-opacity="1" stop-color="rgb(232,238,247)" offset="0%"/>
              <stop stop-opacity="1" stop-color="rgb(183,201,227)" offset="100%"/>
            </linearGradient>
            <linearGradient x1="474" gradientUnits="userSpaceOnUse" x2="554" y1="349.25" y2="389.25" id="linearGradient10" spreadMethod="reflect">
              <stop stop-opacity="1" stop-color="rgb(232,238,247)" offset="0%"/>
              <stop stop-opacity="1" stop-color="rgb(183,201,227)" offset="100%"/>
            </linearGradient>
            <linearGradient x1="254" gradientUnits="userSpaceOnUse" x2="334" y1="349.25" y2="389.25" id="linearGradient11" spreadMethod="reflect">
              <stop stop-opacity="1" stop-color="rgb(232,238,247)" offset="0%"/>
              <stop stop-opacity="1" stop-color="rgb(183,201,227)" offset="100%"/>
            </linearGradient>
            <linearGradient x1="802.8" gradientUnits="userSpaceOnUse" x2="882.8" y1="349.25" y2="389.25" id="linearGradient12" spreadMethod="reflect">
              <stop stop-opacity="1" stop-color="rgb(232,238,247)" offset="0%"/>
              <stop stop-opacity="1" stop-color="rgb(183,201,227)" offset="100%"/>
            </linearGradient>
            <linearGradient x1="912.8" gradientUnits="userSpaceOnUse" x2="992.8" y1="349.25" y2="389.25" id="linearGradient13" spreadMethod="reflect">
              <stop stop-opacity="1" stop-color="rgb(232,238,247)" offset="0%"/>
              <stop stop-opacity="1" stop-color="rgb(183,201,227)" offset="100%"/>
            </linearGradient>
            <linearGradient x1="254" gradientUnits="userSpaceOnUse" x2="334" y1="121.75" y2="161.75" id="linearGradient14" spreadMethod="reflect">
              <stop stop-opacity="1" stop-color="rgb(232,238,247)" offset="0%"/>
              <stop stop-opacity="1" stop-color="rgb(183,201,227)" offset="100%"/>
            </linearGradient>
            <clipPath clipPathUnits="userSpaceOnUse" id="clipPath1">
              <path d="M0 0 L994 0 L994 348 L0 348 L0 0 Z"/>
            </clipPath>
            <clipPath clipPathUnits="userSpaceOnUse" id="clipPath2">
              <path d="M115 57 L1109 57 L1109 405 L115 405 L115 57 Z"/>
            </clipPath>
            <clipPath clipPathUnits="userSpaceOnUse" id="clipPath3">
              <path d="M-410.2129 -34.9747 L264.0054 -34.9747 L264.0054 206.3141 L-410.2129 206.3141 L-410.2129 -34.9747 Z"/>
            </clipPath>
            <clipPath clipPathUnits="userSpaceOnUse" id="clipPath4">
              <path d="M-307.1131 -34.9747 L367.1052 -34.9747 L367.1052 206.3141 L-307.1131 206.3141 L-307.1131 -34.9747 Z"/>
            </clipPath>
          </defs>
  
  <metadata id="svg1.metadata7">
    
  </metadata>
  <g inkscape:groupmode="layer" id="svg1.layer1" transform="translate(-29.5,-42.959476)" inkscape:label="Ebene 1">
    <a id="svg1.a3142" transform="matrix(1.0873906,0,0,1,-4.4741999,0)">
      <path transform="translate(11.586889,5.2908993)" style="fill:none;fill-rule:evenodd;stroke:#000000;stroke-width:1px;stroke-linecap:butt;stroke-linejoin:miter;stroke-opacity:1" sodipodi:cx="38.509369" sodipodi:cy="47.36993" sodipodi:rx="8.5197716" id="svg1.path2160" d="M 47.02914 47.36993 A 8.5197716 9.2013531 0 1 1  29.989597,47.36993 A 8.5197716 9.2013531 0 1 1  47.02914 47.36993 z" sodipodi:ry="9.2013531" sodipodi:type="arc"/>
    </a>
    <path style="fill:none" sodipodi:cx="43.962021" sodipodi:cy="48.392303" d="M 47.71072 48.392303 A 3.7486994 0 0 1 1  40.213321,48.392303 A 3.7486994 0 0 1 1  47.71072 48.392303 z" id="svg1.path3134" sodipodi:rx="3.7486994" sodipodi:ry="0" sodipodi:type="arc"/>
    <path style="fill:none;fill-rule:evenodd;stroke:#000000;stroke-width:1.24319649px;stroke-linecap:butt;stroke-linejoin:miter;stroke-opacity:1" d="M 50,61.33709 C 50,91.363211 50,92.247838 50,92.247838" id="svg1.path3136"/>
    <path style="fill:none;fill-rule:evenodd;stroke:#000000;stroke-width:1px;stroke-linecap:butt;stroke-linejoin:miter;stroke-opacity:1" d="M 69.760668,72.362183 C 69.760668,72.362183 69.760668,72.362183 50.239332,72.362183 C 30.239332,72.362183 30.239332,72.362183 30.239332,72.362183 L 30.239332,72.362183" id="svg1.path3138"/>
    <path style="fill:none;fill-rule:evenodd;stroke:#000000;stroke-width:1px;stroke-linecap:butt;stroke-linejoin:miter;stroke-opacity:1" d="M 30,111.45687 C 30,111.45687 30,111.45687 50,92.013532 C 70,111.45687 70,111.45687 70,111.45687" id="svg1.path3140"/>
  </g>
</svg>
      </g>
    </g>
    <g font-size="13px" stroke-linecap="butt" transform="matrix(1,0,0,1,-115,-57)" text-rendering="geometricPrecision" font-family="sans-serif" shape-rendering="geometricPrecision" stroke-miterlimit="1.45">
      <text x="732.782" xml:space="preserve" y="87.0088" clip-path="url(#clipPath2)" stroke="none">Actor</text>
    </g>
    <g text-rendering="geometricPrecision" shape-rendering="geometricPrecision" transform="matrix(1.4743,0,0,1.4423,452.7768,50.4424)">
      <g clip-path="url(#clipPath4)">
        <svg xmlns:svg="http://www.w3.org/2000/svg" xmlns:sodipodi="http://sodipodi.sourceforge.net/DTD/sodipodi-0.dtd" xmlns:inkscape="http://www.inkscape.org/namespaces/inkscape" xmlns:dc="http://purl.org/dc/elements/1.1/" xmlns:cc="http://web.resource.org/cc/" xmlns:rdf="http://www.w3.org/1999/02/22-rdf-syntax-ns#" opacity="1" writing-mode="lr-tb" stop-color="rgb(0, 0, 0)" shape-rendering="auto" glyph-orientation-horizontal="0deg" color-profile="auto" lighting-color="rgb(255, 255, 255)" color="rgb(0, 0, 0)" font-weight="400" alignment-baseline="auto" font-style="normal" version="1.0" color-interpolation-filters="linearrgb" text-anchor="start" stroke-linecap="butt" color-interpolation="srgb" font-variant="normal" word-spacing="normal" fill-opacity="1" text-rendering="auto" clip-path="none" text-decoration="none" letter-spacing="normal" glyph-orientation-vertical="auto" display="inline" font-size-adjust="none" overflow="visible" fill="rgb(0, 0, 0)" font-stretch="normal" stroke-dasharray="none" inkscape:version="0.45.1" id="svg2.svg2" stroke-miterlimit="4" stop-opacity="1" color-rendering="auto" font-size="12" sodipodi:docbase="C:\Daten\alberts\projects\yfx" pointer-events="visiblepainted" mask="none" direction="ltr" baseline-shift="baseline" sodipodi:docname="uml_actor.svg" enable-background="accumulate" fill-rule="nonzero" image-rendering="auto" stroke-dashoffset="0" inkscape:output_extension="org.inkscape.output.svg.inkscape" marker-end="none" width="41" clip="auto" cursor="auto" stroke="none" filter="none" visibility="visible" kerning="auto" stroke-width="1" font-family="&quot;Arial&quot;,&quot;Helvetica&quot;,sans-serif" flood-opacity="1" clip-rule="nonzero" src="none" height="68.997391" unicode-bidi="normal" sodipodi:version="0.32" stroke-linejoin="miter" stroke-opacity="1" flood-color="rgb(0, 0, 0)" dominant-baseline="auto" marker-start="none" marker-mid="none">
  <defs id="svg2.defs4"/>
  
  <metadata id="svg2.metadata7">
    
  </metadata>
  <g inkscape:groupmode="layer" id="svg2.layer1" transform="translate(-29.5,-42.959476)" inkscape:label="Ebene 1">
    <a id="svg2.a3142" transform="matrix(1.0873906,0,0,1,-4.4741999,0)">
      <path transform="translate(11.586889,5.2908993)" style="fill:none;fill-rule:evenodd;stroke:#000000;stroke-width:1px;stroke-linecap:butt;stroke-linejoin:miter;stroke-opacity:1" sodipodi:cx="38.509369" sodipodi:cy="47.36993" sodipodi:rx="8.5197716" id="svg2.path2160" d="M 47.02914 47.36993 A 8.5197716 9.2013531 0 1 1  29.989597,47.36993 A 8.5197716 9.2013531 0 1 1  47.02914 47.36993 z" sodipodi:ry="9.2013531" sodipodi:type="arc"/>
    </a>
    <path style="fill:none" sodipodi:cx="43.962021" sodipodi:cy="48.392303" d="M 47.71072 48.392303 A 3.7486994 0 0 1 1  40.213321,48.392303 A 3.7486994 0 0 1 1  47.71072 48.392303 z" id="svg2.path3134" sodipodi:rx="3.7486994" sodipodi:ry="0" sodipodi:type="arc"/>
    <path style="fill:none;fill-rule:evenodd;stroke:#000000;stroke-width:1.24319649px;stroke-linecap:butt;stroke-linejoin:miter;stroke-opacity:1" d="M 50,61.33709 C 50,91.363211 50,92.247838 50,92.247838" id="svg2.path3136"/>
    <path style="fill:none;fill-rule:evenodd;stroke:#000000;stroke-width:1px;stroke-linecap:butt;stroke-linejoin:miter;stroke-opacity:1" d="M 69.760668,72.362183 C 69.760668,72.362183 69.760668,72.362183 50.239332,72.362183 C 30.239332,72.362183 30.239332,72.362183 30.239332,72.362183 L 30.239332,72.362183" id="svg2.path3138"/>
    <path style="fill:none;fill-rule:evenodd;stroke:#000000;stroke-width:1px;stroke-linecap:butt;stroke-linejoin:miter;stroke-opacity:1" d="M 30,111.45687 C 30,111.45687 30,111.45687 50,92.013532 C 70,111.45687 70,111.45687 70,111.45687" id="svg2.path3140"/>
  </g>
</svg>
      </g>
    </g>
    <g font-size="13px" stroke-linecap="butt" transform="matrix(1,0,0,1,-115,-57)" text-rendering="geometricPrecision" font-family="sans-serif" shape-rendering="geometricPrecision" stroke-miterlimit="1.45">
      <text x="580.782" xml:space="preserve" y="87.0088" clip-path="url(#clipPath2)" stroke="none">Actor</text>
    </g>
    <g fill="url(#linearGradient9)" text-rendering="geometricPrecision" shape-rendering="geometricPrecision" transform="matrix(1,0,0,1,-115,-57)" stroke="url(#linearGradient9)">
      <path d="M364 349.25 L444 349.25 L444 389.25 L364 389.25 Z" stroke="none" clip-path="url(#clipPath2)"/>
    </g>
    <g text-rendering="geometricPrecision" stroke-miterlimit="1.45" shape-rendering="geometricPrecision" transform="matrix(1,0,0,1,-115,-57)" stroke-linecap="butt">
      <path fill="none" d="M364 349.25 L444 349.25 L444 389.25 L364 389.25 Z" clip-path="url(#clipPath2)"/>
      <text x="384.8223" xml:space="preserve" y="366.4199" clip-path="url(#clipPath2)" font-family="sans-serif" stroke="none">create</text>
      <text x="380.0967" xml:space="preserve" y="380.3887" clip-path="url(#clipPath2)" font-family="sans-serif" stroke="none">account</text>
    </g>
    <g fill="url(#linearGradient10)" text-rendering="geometricPrecision" shape-rendering="geometricPrecision" transform="matrix(1,0,0,1,-115,-57)" stroke="url(#linearGradient10)">
      <path d="M474 349.25 L554 349.25 L554 389.25 L474 389.25 Z" stroke="none" clip-path="url(#clipPath2)"/>
    </g>
    <g text-rendering="geometricPrecision" stroke-miterlimit="1.45" shape-rendering="geometricPrecision" transform="matrix(1,0,0,1,-115,-57)" stroke-linecap="butt">
      <path fill="none" d="M474 349.25 L554 349.25 L554 389.25 L474 389.25 Z" clip-path="url(#clipPath2)"/>
      <text x="499.5713" xml:space="preserve" y="366.4199" clip-path="url(#clipPath2)" font-family="sans-serif" stroke="none">send</text>
      <text x="503.3887" xml:space="preserve" y="380.3887" clip-path="url(#clipPath2)" font-family="sans-serif" stroke="none">link</text>
    </g>
    <g fill="url(#linearGradient11)" text-rendering="geometricPrecision" shape-rendering="geometricPrecision" transform="matrix(1,0,0,1,-115,-57)" stroke="url(#linearGradient11)">
      <rect x="254" y="349.25" clip-path="url(#clipPath2)" width="80" rx="20" ry="20" height="40" stroke="none"/>
    </g>
    <g text-rendering="geometricPrecision" stroke-miterlimit="1.45" shape-rendering="geometricPrecision" transform="matrix(1,0,0,1,-115,-57)" stroke-linecap="butt">
      <rect x="254" y="349.25" clip-path="url(#clipPath2)" fill="none" width="80" rx="20" ry="20" height="40"/>
      <text x="279.2373" xml:space="preserve" y="373.4043" clip-path="url(#clipPath2)" font-family="sans-serif" stroke="none">error</text>
    </g>
    <g fill="url(#linearGradient12)" text-rendering="geometricPrecision" shape-rendering="geometricPrecision" transform="matrix(1,0,0,1,-115,-57)" stroke="url(#linearGradient12)">
      <path d="M802.8 349.25 L882.8 349.25 L882.8 389.25 L802.8 389.25 Z" stroke="none" clip-path="url(#clipPath2)"/>
    </g>
    <g text-rendering="geometricPrecision" stroke-miterlimit="1.45" shape-rendering="geometricPrecision" transform="matrix(1,0,0,1,-115,-57)" stroke-linecap="butt">
      <path fill="none" d="M802.8 349.25 L882.8 349.25 L882.8 389.25 L802.8 389.25 Z" clip-path="url(#clipPath2)"/>
      <text x="829.2971" xml:space="preserve" y="366.4199" clip-path="url(#clipPath2)" font-family="sans-serif" stroke="none">auto</text>
      <text x="828.1838" xml:space="preserve" y="380.3887" clip-path="url(#clipPath2)" font-family="sans-serif" stroke="none">login</text>
    </g>
    <g fill="url(#linearGradient13)" text-rendering="geometricPrecision" shape-rendering="geometricPrecision" transform="matrix(1,0,0,1,-115,-57)" stroke="url(#linearGradient13)">
      <path d="M912.8 349.25 L992.8 349.25 L992.8 389.25 L912.8 389.25 Z" stroke="none" clip-path="url(#clipPath2)"/>
    </g>
    <g text-rendering="geometricPrecision" stroke-miterlimit="1.45" shape-rendering="geometricPrecision" transform="matrix(1,0,0,1,-115,-57)" stroke-linecap="butt">
      <path fill="none" d="M912.8 349.25 L992.8 349.25 L992.8 389.25 L912.8 389.25 Z" clip-path="url(#clipPath2)"/>
      <text x="929.3566" xml:space="preserve" y="373.4043" clip-path="url(#clipPath2)" font-family="sans-serif" stroke="none">redirect</text>
    </g>
    <g fill="url(#linearGradient14)" text-rendering="geometricPrecision" shape-rendering="geometricPrecision" transform="matrix(1,0,0,1,-115,-57)" stroke="url(#linearGradient14)">
      <path d="M264.2 121.75 L334 121.75 L323.8 161.75 L254 161.75 Z" stroke="none" clip-path="url(#clipPath2)"/>
    </g>
    <g text-rendering="geometricPrecision" stroke-miterlimit="1.45" shape-rendering="geometricPrecision" transform="matrix(1,0,0,1,-115,-57)" stroke-linecap="butt">
      <path fill="none" d="M264.2 121.75 L334 121.75 L323.8 161.75 L254 161.75 Z" clip-path="url(#clipPath2)"/>
      <text x="277.4531" xml:space="preserve" y="145.9043" clip-path="url(#clipPath2)" font-family="sans-serif" stroke="none">email</text>
    </g>
    <g text-rendering="geometricPrecision" stroke-miterlimit="1.45" shape-rendering="geometricPrecision" transform="matrix(1,0,0,1,-115,-57)" stroke-linecap="butt">
      <path fill="none" d="M190.0107 263 L246.0139 263" clip-path="url(#clipPath2)"/>
    </g>
    <g text-rendering="geometricPrecision" stroke-miterlimit="1.45" shape-rendering="geometricPrecision" transform="matrix(1,0,0,1,-115,-57)" stroke-linecap="butt">
      <path d="M254.0139 263 L242.0139 258 L245.0139 263 L242.0139 268 Z" stroke="none" clip-path="url(#clipPath2)"/>
      <path fill="none" d="M333.9668 263 L397.9842 263" clip-path="url(#clipPath2)"/>
      <path d="M405.9842 263 L393.9842 258 L396.9842 263 L393.9842 268 Z" clip-path="url(#clipPath2)" stroke="none"/>
      <text x="358.8245" xml:space="preserve" y="254.8663" clip-path="url(#clipPath2)" font-family="sans-serif" stroke="none">n</text>
      <path fill="none" d="M446 176.7692 L446 235.0002" clip-path="url(#clipPath2)"/>
      <path d="M446 243.0002 L451 231.0002 L446 234.0002 L441 231.0002 Z" clip-path="url(#clipPath2)" stroke="none"/>
      <path fill="none" d="M485.9668 263 L549.9843 263" clip-path="url(#clipPath2)"/>
      <path d="M557.9843 263 L545.9843 258 L548.9843 263 L545.9843 268 Z" clip-path="url(#clipPath2)" stroke="none"/>
      <path fill="none" d="M637.9668 263 L701.9843 263" clip-path="url(#clipPath2)"/>
      <path d="M709.9843 263 L697.9843 258 L700.9843 263 L697.9843 268 Z" clip-path="url(#clipPath2)" stroke="none"/>
      <path fill="none" d="M789.9668 263 L853.9843 263" clip-path="url(#clipPath2)"/>
      <path d="M861.9843 263 L849.9843 258 L852.9843 263 L849.9843 268 Z" clip-path="url(#clipPath2)" stroke="none"/>
      <path fill="none" d="M941.9668 263 L1005.9843 263" clip-path="url(#clipPath2)"/>
      <path d="M1013.9843 263 L1001.9843 258 L1004.9843 263 L1001.9843 268 Z" clip-path="url(#clipPath2)" stroke="none"/>
      <path fill="none" d="M750 206.7363 L750 234.9725" clip-path="url(#clipPath2)"/>
      <path d="M750 242.9725 L755 230.9725 L750 233.9725 L745 230.9725 Z" clip-path="url(#clipPath2)" stroke="none"/>
      <path fill="none" d="M598 206.7363 L598 234.9725" clip-path="url(#clipPath2)"/>
      <path d="M598 242.9725 L603 230.9725 L598 233.9725 L593 230.9725 Z" clip-path="url(#clipPath2)" stroke="none"/>
      <path fill="none" stroke-dasharray="6,2" d="M411.9058 349.2503 L438.0924 283.0043" clip-path="url(#clipPath2)"/>
      <path fill="none" stroke-dasharray="6,2" d="M501.2002 349.2503 L458.7893 282.9833" clip-path="url(#clipPath2)"/>
      <path fill="none" d="M294 282.9997 L294 341.2457" clip-path="url(#clipPath2)"/>
      <path d="M294 349.2457 L299 337.2457 L294 340.2457 L289 337.2457 Z" clip-path="url(#clipPath2)" stroke="none"/>
      <text x="275.7036" xml:space="preserve" y="309.3307" clip-path="url(#clipPath2)" font-family="sans-serif" stroke="none">y</text>
      <path fill="none" stroke-dasharray="6,2" d="M890.8566 282.9997 L853.9459 349.2457" clip-path="url(#clipPath2)"/>
      <path fill="none" stroke-dasharray="6,2" d="M911.5622 282.9997 L943.2356 349.2457" clip-path="url(#clipPath2)"/>
      <path fill="none" d="M294 161.7314 L294 234.9737" clip-path="url(#clipPath2)"/>
      <path d="M294 242.9737 L299 230.9737 L294 233.9737 L289 230.9737 Z" clip-path="url(#clipPath2)" stroke="none"/>
    </g>
  </g>
</svg>
